<svg width="186" height="45" viewBox="0 0 186 45" fill="none" xmlns="http://www.w3.org/2000/svg">
<path d="M59.2865 11.5738C58.8545 11.0937 58.4224 10.6137 57.9423 10.1336C54.8219 7.20514 50.5972 5.38086 45.9405 5.38086C40.8517 5.38086 36.243 7.5892 33.0265 11.0937C32.5945 11.5738 32.1624 12.1019 31.7783 12.63C29.81 15.3664 28.5618 18.6309 28.4178 22.2314C28.4178 22.4715 28.4658 22.7115 28.4658 22.9996C28.4658 23.2396 28.4658 23.5276 28.4178 23.7677C28.3218 25.3519 27.8897 26.7921 27.1696 28.1363C26.2095 29.9606 24.7213 31.4969 22.897 32.505V39.8021C25.8734 38.842 28.5138 37.1617 30.5301 34.9054C30.9622 34.4253 31.3943 33.8972 31.7783 33.3691C33.7466 30.6327 34.9948 27.3682 35.1388 23.7677C35.1388 23.5276 35.0908 23.2396 35.0908 22.9996C35.0908 22.7595 35.0908 22.4715 35.1388 22.2314C35.2349 20.6472 35.6669 19.159 36.387 17.8628C38.2113 14.4542 41.8119 12.1499 45.9405 12.1499C49.7811 12.1499 53.1416 14.1182 55.0619 17.1427C56.1661 18.8229 56.7901 20.8392 56.7901 22.9996C56.7901 24.1037 56.5981 25.2079 56.3101 26.216C54.9179 30.6327 50.7892 33.8492 45.9405 33.8492C41.8119 33.8492 38.2113 31.5449 36.387 28.1363C35.7149 30.6327 34.5628 32.8891 33.0265 34.9054C36.243 38.4099 40.8517 40.5702 45.9405 40.5702C50.9333 40.5702 55.4459 38.4579 58.6624 35.1454C59.3345 34.4733 59.9106 33.7052 60.4387 32.9371C60.5827 32.697 60.7748 32.457 60.9188 32.217C61.2548 31.6409 61.5909 31.0648 61.8309 30.4887C62.8871 28.2324 63.4632 25.688 63.4632 23.0476C63.5112 18.6309 61.9269 14.6463 59.2865 11.5738Z" fill="black"/>
<path d="M17.5707 27.7043C15.6984 27.7043 14.2102 29.1925 14.2102 31.0648V31.2568V33.3211C13.5381 33.0811 12.914 32.8411 12.2899 32.457C8.97737 30.5847 6.72103 27.0322 6.72103 22.9996C6.72103 16.9986 11.5698 12.1499 17.5707 12.1499C21.6993 12.1499 25.2999 14.4542 27.1241 17.8628C27.7963 15.3664 28.9484 13.11 30.4847 11.0937C27.2682 7.5892 22.6595 5.38086 17.5707 5.38086C7.8732 5.38086 0 13.2541 0 22.9515C0 30.7767 5.18479 37.4498 12.2899 39.7061C12.914 39.8981 13.5381 40.0902 14.2102 40.1862V41.0503C14.2102 41.4344 14.2582 41.8184 14.4022 42.2025C14.8823 43.4987 16.0825 44.4108 17.5707 44.4108C19.0589 44.4108 20.2591 43.4987 20.7392 42.2025C20.8832 41.8664 20.9312 41.4824 20.9312 41.0503V40.1862V33.3211V31.2568V31.0648C20.9312 29.1925 19.443 27.7043 17.5707 27.7043Z" fill="black"/>
<path d="M84.2496 34.9539C85.3538 36.2021 85.4018 38.0264 84.3937 39.2746C84.1536 38.6985 84.0576 38.0744 84.0576 37.4023V34.7139C84.1056 34.8099 84.2016 34.9059 84.2496 34.9539Z" fill="black"/>
<path d="M114.595 16.8546C114.499 16.3745 114.403 15.8945 114.211 15.4144C114.067 14.9343 113.923 14.5023 113.683 14.0222C113.299 13.11 112.819 12.2459 112.29 11.4778C112.242 11.4298 112.243 11.3818 112.194 11.3338C111.858 10.8537 111.474 10.3736 111.042 9.94156C110.994 9.89355 110.994 9.89355 110.946 9.84554C108.354 7.10912 104.657 5.38086 100.577 5.38086C98.3684 5.38086 96.3041 5.86093 94.4798 6.77307C93.9037 7.06112 93.3756 7.34916 92.8475 7.68521L92.7995 7.73322C90.0151 9.5575 87.8548 12.4379 86.9426 15.7985C86.6066 16.9986 86.4146 18.2948 86.4146 19.591V26.9842V37.4018C86.4146 38.1219 86.6546 38.794 87.0387 39.3701C87.6628 40.2342 88.6229 40.7623 89.7751 40.7623C91.6473 40.7623 93.1356 39.274 93.1356 37.4018V33.7532V31.6409C93.7117 32.0249 94.3358 32.313 94.9599 32.601C96.6881 33.3691 98.6084 33.8012 100.625 33.8012C103.313 33.8012 105.858 33.0331 107.97 31.7369C108.018 31.7369 108.066 31.6889 108.066 31.6889C108.594 31.3528 109.074 31.0168 109.554 30.6327C109.602 30.5847 109.602 30.5847 109.65 30.5367C111.426 29.0485 112.867 27.1282 113.731 24.9679C113.779 24.8238 113.827 24.6798 113.923 24.5358C114.019 24.3438 114.067 24.1517 114.115 23.9117C114.259 23.5276 114.355 23.0956 114.451 22.7115C114.499 22.5195 114.547 22.2794 114.595 22.0874C114.643 21.7034 114.739 21.3193 114.739 20.9352C114.787 20.5032 114.787 20.0711 114.787 19.591C114.883 18.6789 114.787 17.7187 114.595 16.8546ZM107.97 21.0793C107.682 22.4235 107.058 23.6717 106.146 24.6318C106.098 24.6798 106.05 24.7278 106.002 24.7758C105.762 25.0639 105.473 25.3039 105.185 25.4959C104.897 25.736 104.609 25.928 104.321 26.072C103.265 26.6481 102.017 27.0322 100.721 27.0322C98.4644 27.0322 96.4481 26.024 95.0559 24.4398C93.9517 23.1436 93.2316 21.4633 93.2316 19.591C93.2316 17.7187 93.9037 16.0385 95.0559 14.7423C96.4001 13.158 98.4644 12.1499 100.721 12.1499C102.113 12.1499 103.409 12.534 104.513 13.2061C105.665 13.8782 106.578 14.8863 107.202 16.0385C107.25 16.0865 107.25 16.1825 107.298 16.2305C107.826 17.2387 108.114 18.3908 108.114 19.591C108.114 19.7831 108.114 19.9271 108.114 20.1191C108.114 20.2631 108.066 20.4072 108.066 20.5512C108.066 20.5512 108.066 20.5512 108.066 20.5992C108.018 20.7912 108.018 20.9352 107.97 21.0793Z" fill="black"/>
<path d="M70.9591 12.1506C75.0877 12.1506 78.4002 15.4631 78.4002 19.5917C78.4002 22.4721 76.72 25.0165 74.3196 26.2167C76.2879 26.9368 78.6403 27.993 80.9926 29.5772C82.2888 28.281 83.345 26.6968 84.0651 25.0165C84.3051 24.4884 84.4972 23.9124 84.6412 23.3843C84.9772 22.1841 85.1693 20.9359 85.1693 19.6397C85.1693 18.3435 84.9772 17.0473 84.6412 15.8471C84.4972 15.271 84.3051 14.743 84.0651 14.2149C81.9528 9.07809 76.864 5.47754 71.0071 5.47754C66.8785 5.47754 63.1339 7.25381 60.5415 10.0862C62.1738 11.9105 63.47 14.0228 64.2861 16.3752C65.4863 13.8788 68.0306 12.1506 70.9591 12.1506Z" fill="black"/>
<path d="M84.0183 34.7147C83.1062 33.7065 82.098 32.7944 81.0899 32.0263C80.5618 31.5942 79.9857 31.2101 79.4576 30.8741C75.521 28.2817 71.5844 27.2735 69.9042 26.9375C69.9042 26.9375 69.9042 26.9375 69.8562 26.9375C69.6161 26.8895 69.4241 26.8415 69.2801 26.8415C69.2321 26.8415 69.2321 26.8415 69.2321 26.8415C68.1279 26.6014 67.1678 26.0733 66.3036 25.4012C65.9676 25.1612 65.6795 24.8252 65.3915 24.5371C65.3435 25.0652 65.2955 25.6413 65.1995 26.1694C64.9114 28.0416 64.3353 29.8179 63.5192 31.4982C63.5192 31.5462 63.4712 31.5942 63.4712 31.6422C63.5192 31.6902 63.5672 31.6902 63.6152 31.7382C63.8072 31.8342 63.9513 31.9302 64.1433 32.0263C65.0074 32.5063 65.9676 32.9384 66.9757 33.2264C67.2638 33.3225 67.5998 33.4185 67.8879 33.4665C67.9839 33.5145 68.0799 33.5145 68.1759 33.5145C68.1759 33.5145 68.2719 33.5145 68.3679 33.5625C68.4159 33.5625 68.4159 33.5625 68.464 33.5625C68.56 33.6105 68.656 33.6105 68.752 33.6105C69.7121 33.8025 71.6804 34.3306 73.9368 35.4348C75.7611 36.3469 77.6814 37.6431 79.3136 39.4674C79.9857 40.1875 80.8978 40.5716 81.81 40.5716C82.6261 40.5716 83.3942 40.2835 84.0663 39.7074C84.2104 39.5634 84.3544 39.4194 84.4504 39.2754C85.4585 38.0272 85.4586 36.2029 84.3064 34.9547C84.2104 34.9067 84.1143 34.8107 84.0183 34.7147Z" fill="black"/>
<path d="M63.5174 33.8486C62.8933 33.8486 62.3172 33.9927 61.7891 34.2807C61.069 34.7128 60.5409 35.3369 60.3009 36.105C60.2049 36.441 60.1089 36.7771 60.1089 37.1611C60.1089 39.0334 61.5971 40.5217 63.4694 40.5217C65.3417 40.5217 66.8299 39.0334 66.8299 37.1611C66.8299 36.249 66.4459 35.4329 65.8698 34.8088C65.2937 34.2327 64.4776 33.8486 63.5174 33.8486Z" fill="black"/>
<path d="M125.492 5.38086C120.931 5.38086 116.755 7.10912 113.634 9.98956C113.634 10.0376 113.682 10.0376 113.73 10.0856C115.171 12.0059 116.131 14.3102 116.563 16.7586C118.531 13.9262 121.796 12.0539 125.492 12.0539C131.493 12.0539 136.342 16.9026 136.342 22.9035C136.342 28.9045 131.493 33.7532 125.492 33.7532C120.739 33.7532 116.707 30.7287 115.267 26.4561C114.21 28.6644 112.626 30.6327 110.706 32.169C110.658 32.169 110.658 32.217 110.61 32.217C113.73 37.1617 119.251 40.4742 125.492 40.4742C135.19 40.4742 143.063 32.601 143.063 22.9035C143.063 13.2541 135.142 5.38086 125.492 5.38086Z" fill="black"/>
<path d="M43.4487 18.583V27.2723L50.9859 22.9517L43.4487 18.583Z" fill="black"/>
<path d="M133.691 40.5844H140.583L149.149 0H142.257L133.691 40.5844Z" fill="white"/>
<path d="M143.735 40.5844H160.738C163.229 40.5844 165.784 40.0641 168.403 39.0235C171.065 37.9829 173.534 36.552 175.809 34.7309C178.085 32.9098 180.06 30.7852 181.735 28.3571C183.409 25.8856 184.547 23.2407 185.148 20.4223C185.749 17.6039 185.771 14.959 185.213 12.4875C184.697 10.016 183.71 7.84806 182.25 5.9836C180.833 4.11915 179.008 2.6666 176.775 1.62598C174.543 0.541992 172.009 0 169.176 0H152.301L143.735 40.5844ZM167.823 6.76407C169.626 6.76407 171.258 7.13263 172.718 7.86974C174.178 8.60685 175.38 9.6258 176.325 10.9266C177.312 12.184 177.999 13.6365 178.386 15.2842C178.772 16.9319 178.772 18.6662 178.386 20.4873C177.999 22.3084 177.248 24.0211 176.131 25.6254C175.015 27.2297 173.684 28.6606 172.138 29.918C170.592 31.1321 168.939 32.1077 167.179 32.8448C165.419 33.5385 163.701 33.8854 162.027 33.8854H152.044L157.776 6.76407H167.823Z" fill="white"/>
</svg>
